<svg xmlns="http://www.w3.org/2000/svg" width="100" height="100" viewBox="0 0 24 24" fill="none" stroke="black" stroke-width="1.2" stroke-linecap="round" stroke-linejoin="round">
  <!-- Solo -->
  <line x1="2" y1="21" x2="22" y2="21"></line>
  
  <!-- Prédio Moderno -->
  <path d="M4 21V7a2 2 0 0 1 2-2h6a2 2 0 0 1 2 2v14"></path>
  <line x1="7" y1="9" x2="11" y2="9"></line>
  <line x1="7" y1="13" x2="11" y2="13"></line>
  <line x1="7" y1="17" x2="11" y2="17"></line>
  
  <!-- Árvore (Espaços/Lazer) -->
  <path d="M18 21v-4"></path>
  <path d="M15 14a3 3 0 1 1 6 0 3 3 0 1 1-6 0"></path>
  
  <!-- Sol/Serviço (Luz/Premium) -->
  <circle cx="19" cy="5" r="2"></circle>
  <line x1="19" y1="2" x2="19" y2="3"></line>
  <line x1="22" y1="5" x2="21" y2="5"></line>
</svg>
